---
title: 黄敏华.1988-EXTENDDISCOREMIX（LP版）【EMI百代】【WAV+CUE】
date: 2022-12-05 10:42:47
categories: WAV车载音乐、镜像
tags: 华语中文
---
# 黄敏华.1988-EXTENDDISCOREMIX（LP版）【EMI百代】【WAV+CUE】

TITLE "黄敏华-EXTEND DISCO REMIX(LP)"
FILE "黄敏华-EXTEND DISCO REMIX(LP).wav" WAVE
TRACK 01 AUDIO
PERFORMER "黄敏华"
TITLE "送機又接機"
REM DATE 1988
INDEX 01 00:00:00
TRACK 02 AUDIO
PERFORMER "黄敏华"
TITLE "挑戰"
REM DATE 1988
INDEX 01 03:36:62
TRACK 03 AUDIO
PERFORMER "黄敏华"
TITLE "Honey
honey"
REM DATE 1988
INDEX 01 09:02:71
黄敏华.1988 - EXTEND DISCO
REMIX（LP版）【EMI百代】【WAV+CUE】.rar: https://url27.ctfile.com/f/9388027-740375007-84f4fc?p=559675
(访问密码: 559675)
原文：[链接](https://blog.sina.com.cn/s/blog_1647c7e76010310go.html)